<mxfile host="65bd71144e">
    <diagram id="AXseQeaZqJB_uZ-LoCE2" name="Page-1">
        <mxGraphModel dx="534" dy="432" grid="1" gridSize="9" guides="1" tooltips="1" connect="1" arrows="1" fold="1" page="1" pageScale="1" pageWidth="850" pageHeight="1100" math="0" shadow="0">
            <root>
                <mxCell id="0"/>
                <mxCell id="1" parent="0"/>
                <mxCell id="77" value="" style="group;fontSize=13;" vertex="1" connectable="0" parent="1">
                    <mxGeometry x="171" width="504" height="739.2" as="geometry"/>
                </mxCell>
                <mxCell id="74" value="" style="rounded=0;whiteSpace=wrap;html=1;fontSize=8;align=center;" parent="77" vertex="1">
                    <mxGeometry width="504" height="739.2" as="geometry"/>
                </mxCell>
                <mxCell id="2" value="Related Items and Comparison" style="ellipse;whiteSpace=wrap;html=1;fontSize=11;" parent="77" vertex="1">
                    <mxGeometry x="195.3777777777778" y="109.51111111111112" width="99.55555555555556" height="99.55555555555556" as="geometry"/>
                </mxCell>
                <mxCell id="3" value="RelatedProducts&lt;br style=&quot;font-size: 10px;&quot;&gt;List" style="ellipse;whiteSpace=wrap;html=1;fontSize=10;" parent="77" vertex="1">
                    <mxGeometry x="92.08888888888889" y="248.88888888888889" width="99.55555555555556" height="99.55555555555556" as="geometry"/>
                </mxCell>
                <mxCell id="4" value="YourOutfitList" style="ellipse;whiteSpace=wrap;html=1;fontSize=11;" parent="77" vertex="1">
                    <mxGeometry x="303.64444444444445" y="251.3777777777778" width="99.55555555555556" height="99.55555555555556" as="geometry"/>
                </mxCell>
                <mxCell id="6" value="" style="endArrow=classic;html=1;fontSize=10;exitX=0.5;exitY=1;exitDx=0;exitDy=0;entryX=1;entryY=0;entryDx=0;entryDy=0;" parent="77" source="2" target="3" edge="1">
                    <mxGeometry width="50" height="50" relative="1" as="geometry">
                        <mxPoint x="340.97777777777776" y="336" as="sourcePoint"/>
                        <mxPoint x="403.2" y="273.77777777777777" as="targetPoint"/>
                    </mxGeometry>
                </mxCell>
                <mxCell id="7" value="" style="endArrow=classic;html=1;fontSize=10;entryX=0;entryY=0;entryDx=0;entryDy=0;exitX=0.5;exitY=1;exitDx=0;exitDy=0;" parent="77" source="2" target="4" edge="1">
                    <mxGeometry width="50" height="50" relative="1" as="geometry">
                        <mxPoint x="246.4" y="212.8" as="sourcePoint"/>
                        <mxPoint x="328.5390954635602" y="339.5823729725328" as="targetPoint"/>
                    </mxGeometry>
                </mxCell>
                <mxCell id="10" value="" style="edgeStyle=none;html=1;fontSize=10;exitX=0.5;exitY=1;exitDx=0;exitDy=0;entryX=0.5;entryY=0;entryDx=0;entryDy=0;" parent="77" source="3" target="8" edge="1">
                    <mxGeometry relative="1" as="geometry">
                        <mxPoint x="253.86666666666667" y="348.44444444444446" as="targetPoint"/>
                    </mxGeometry>
                </mxCell>
                <mxCell id="8" value="ProductCard" style="ellipse;whiteSpace=wrap;html=1;fontSize=10;" parent="77" vertex="1">
                    <mxGeometry x="194.75555555555556" y="403.2" width="99.55555555555556" height="99.55555555555556" as="geometry"/>
                </mxCell>
                <mxCell id="11" value="PreviewImages" style="ellipse;whiteSpace=wrap;html=1;fontSize=9;" parent="77" vertex="1">
                    <mxGeometry x="32.355555555555554" y="542.5777777777778" width="75.91111111111111" height="79.64444444444445" as="geometry"/>
                </mxCell>
                <mxCell id="12" value="ProductInfo" style="ellipse;whiteSpace=wrap;html=1;fontSize=10;" parent="77" vertex="1">
                    <mxGeometry x="159.6" y="582.4" width="77.15555555555555" height="79.64444444444445" as="geometry"/>
                </mxCell>
                <mxCell id="14" value="" style="endArrow=classic;html=1;fontSize=10;exitX=0.5;exitY=1;exitDx=0;exitDy=0;entryX=0.5;entryY=0;entryDx=0;entryDy=0;" parent="77" source="8" target="11" edge="1">
                    <mxGeometry width="50" height="50" relative="1" as="geometry">
                        <mxPoint x="299.9111111111111" y="522.6666666666666" as="sourcePoint"/>
                        <mxPoint x="250.13333333333333" y="547.5555555555555" as="targetPoint"/>
                    </mxGeometry>
                </mxCell>
                <mxCell id="15" value="" style="endArrow=classic;html=1;fontSize=10;exitX=0.5;exitY=1;exitDx=0;exitDy=0;" parent="77" source="8" target="12" edge="1">
                    <mxGeometry width="50" height="50" relative="1" as="geometry">
                        <mxPoint x="250.13333333333333" y="497.77777777777777" as="sourcePoint"/>
                        <mxPoint x="125.6888888888889" y="547.5555555555555" as="targetPoint"/>
                    </mxGeometry>
                </mxCell>
                <mxCell id="16" value="Action Button" style="ellipse;whiteSpace=wrap;html=1;fontSize=10;" parent="77" vertex="1">
                    <mxGeometry x="383.2888888888889" y="542.5777777777778" width="80.88888888888889" height="79.64444444444445" as="geometry"/>
                </mxCell>
                <mxCell id="17" value="" style="endArrow=classic;html=1;fontSize=10;exitX=0.5;exitY=1;exitDx=0;exitDy=0;entryX=0.5;entryY=0;entryDx=0;entryDy=0;" parent="77" source="8" target="16" edge="1">
                    <mxGeometry width="50" height="50" relative="1" as="geometry">
                        <mxPoint x="287.4666666666667" y="522.6666666666666" as="sourcePoint"/>
                        <mxPoint x="349.68888888888887" y="460.44444444444446" as="targetPoint"/>
                    </mxGeometry>
                </mxCell>
                <mxCell id="18" value="" style="endArrow=classic;html=1;fontSize=10;entryX=0.5;entryY=0;entryDx=0;entryDy=0;" parent="77" target="2" edge="1">
                    <mxGeometry width="50" height="50" relative="1" as="geometry">
                        <mxPoint x="245.15555555555557" y="11.2" as="sourcePoint"/>
                        <mxPoint x="232.7111111111111" y="258.84444444444443" as="targetPoint"/>
                    </mxGeometry>
                </mxCell>
                <mxCell id="19" value="productID,&lt;br&gt;updateProductId()" style="shape=parallelogram;perimeter=parallelogramPerimeter;whiteSpace=wrap;html=1;fixedSize=1;fontSize=10;align=center;" parent="77" vertex="1">
                    <mxGeometry x="245.15555555555557" y="34.84444444444445" width="136.88888888888889" height="49.77777777777778" as="geometry"/>
                </mxCell>
                <mxCell id="20" value="productID,&lt;br style=&quot;font-size: 8px;&quot;&gt;updateProductId()" style="shape=parallelogram;perimeter=parallelogramPerimeter;whiteSpace=wrap;html=1;fixedSize=1;fontSize=8;align=center;size=10;" parent="77" vertex="1">
                    <mxGeometry x="189.15555555555557" y="243.91111111111113" width="100.17777777777778" height="31.11111111111111" as="geometry"/>
                </mxCell>
                <mxCell id="22" value="&lt;font style=&quot;font-size: 8px&quot;&gt;getRelatedProductIds()&lt;br&gt;GET /products/:product_id/related&lt;/font&gt;" style="text;html=1;strokeColor=none;fillColor=none;align=center;verticalAlign=middle;whiteSpace=wrap;rounded=0;fontSize=6;" parent="77" vertex="1">
                    <mxGeometry x="186.66666666666666" y="324.8" width="123.2" height="21.155555555555555" as="geometry"/>
                </mxCell>
                <mxCell id="25" value="relatedProductId[x]" style="shape=parallelogram;perimeter=parallelogramPerimeter;whiteSpace=wrap;html=1;fixedSize=1;fontSize=9;align=center;size=10;" parent="77" vertex="1">
                    <mxGeometry x="83.37777777777778" y="382.0444444444444" width="119.46666666666667" height="24.88888888888889" as="geometry"/>
                </mxCell>
                <mxCell id="26" value="" style="endArrow=none;dashed=1;html=1;dashPattern=1 3;strokeWidth=2;fontSize=10;startArrow=none;startFill=1;entryX=-0.001;entryY=0.559;entryDx=0;entryDy=0;entryPerimeter=0;" parent="77" source="27" target="8" edge="1">
                    <mxGeometry width="50" height="50" relative="1" as="geometry">
                        <mxPoint x="-107.02222222222223" y="168" as="sourcePoint"/>
                        <mxPoint x="190.4" y="462.93333333333334" as="targetPoint"/>
                        <Array as="points">
                            <mxPoint x="69.6888888888889" y="459.2"/>
                        </Array>
                    </mxGeometry>
                </mxCell>
                <mxCell id="27" value="updateProductId()&lt;br&gt;sets App state&amp;nbsp;" style="text;html=1;strokeColor=none;fillColor=none;align=center;verticalAlign=middle;whiteSpace=wrap;rounded=0;fontSize=10;" parent="77" vertex="1">
                    <mxGeometry x="14.311111111111112" y="123.2" width="112" height="37.333333333333336" as="geometry"/>
                </mxCell>
                <mxCell id="28" value="" style="endArrow=none;dashed=1;html=1;dashPattern=1 3;strokeWidth=2;fontSize=10;startArrow=classicThin;startFill=1;entryX=0.43;entryY=0.011;entryDx=0;entryDy=0;entryPerimeter=0;" parent="77" edge="1">
                    <mxGeometry width="50" height="50" relative="1" as="geometry">
                        <mxPoint x="70.26133333333338" y="12.444444444444445" as="sourcePoint"/>
                        <mxPoint x="69.8880000000001" y="131.0773333333333" as="targetPoint"/>
                        <Array as="points"/>
                    </mxGeometry>
                </mxCell>
                <mxCell id="32" value="getProductInfo() - Category, Name&lt;br style=&quot;font-size: 9px&quot;&gt;GET /products/:product_id" style="text;html=1;strokeColor=none;fillColor=none;align=center;verticalAlign=middle;whiteSpace=wrap;rounded=0;fontSize=9;" parent="77" vertex="1">
                    <mxGeometry x="311.73333333333335" y="451.73333333333335" width="178.57777777777778" height="29.866666666666667" as="geometry"/>
                </mxCell>
                <mxCell id="33" value="" style="endArrow=none;dashed=1;html=1;dashPattern=1 3;strokeWidth=2;fontSize=9;" parent="77" edge="1">
                    <mxGeometry width="50" height="50" relative="1" as="geometry">
                        <mxPoint x="297.21066666666667" y="684.4444444444445" as="sourcePoint"/>
                        <mxPoint x="297.21066666666667" y="662.0444444444445" as="targetPoint"/>
                    </mxGeometry>
                </mxCell>
                <mxCell id="34" value="getProductPrice() - price, images&lt;br&gt;GET /products/:product_id/styles" style="text;html=1;strokeColor=none;fillColor=none;align=center;verticalAlign=middle;whiteSpace=wrap;rounded=0;fontSize=9;" parent="77" vertex="1">
                    <mxGeometry x="309.8666666666667" y="420.6222222222222" width="180.44444444444446" height="31.11111111111111" as="geometry"/>
                </mxCell>
                <mxCell id="35" value="StarRating" style="ellipse;whiteSpace=wrap;html=1;fontSize=9;" parent="77" vertex="1">
                    <mxGeometry x="259.77777777777777" y="582.4" width="75.91111111111111" height="79.64444444444445" as="geometry"/>
                </mxCell>
                <mxCell id="36" value="" style="endArrow=classic;html=1;fontSize=10;entryX=0.5;entryY=0;entryDx=0;entryDy=0;exitX=0.5;exitY=1;exitDx=0;exitDy=0;" parent="77" source="8" target="35" edge="1">
                    <mxGeometry width="50" height="50" relative="1" as="geometry">
                        <mxPoint x="253.86666666666667" y="504" as="sourcePoint"/>
                        <mxPoint x="213.42222222222222" y="578.6666666666666" as="targetPoint"/>
                    </mxGeometry>
                </mxCell>
                <mxCell id="39" value="getRating()&lt;br&gt;GET /reviews/meta?product_id" style="text;html=1;strokeColor=none;fillColor=none;align=center;verticalAlign=middle;whiteSpace=wrap;rounded=0;fontSize=9;" parent="77" vertex="1">
                    <mxGeometry x="208.44444444444446" y="684.4444444444445" width="178.57777777777778" height="29.866666666666667" as="geometry"/>
                </mxCell>
                <mxCell id="41" value="primaryImgUrl" style="shape=parallelogram;perimeter=parallelogramPerimeter;whiteSpace=wrap;html=1;fixedSize=1;fontSize=10;align=center;size=10;" parent="77" vertex="1">
                    <mxGeometry x="61.28888888888889" y="502.7555555555556" width="98.31111111111112" height="24.88888888888889" as="geometry"/>
                </mxCell>
                <mxCell id="42" value="comparison&lt;br&gt;Modal" style="ellipse;whiteSpace=wrap;html=1;fontSize=9;" parent="77" vertex="1">
                    <mxGeometry x="390.1333333333333" y="650.8444444444444" width="67.2" height="67.2" as="geometry"/>
                </mxCell>
                <mxCell id="43" value="" style="endArrow=classic;html=1;fontSize=10;entryX=0.5;entryY=0;entryDx=0;entryDy=0;exitX=0.5;exitY=1;exitDx=0;exitDy=0;" parent="77" source="16" target="42" edge="1">
                    <mxGeometry width="50" height="50" relative="1" as="geometry">
                        <mxPoint x="425.6" y="627.2" as="sourcePoint"/>
                        <mxPoint x="489.06666666666666" y="627.2" as="targetPoint"/>
                    </mxGeometry>
                </mxCell>
                <mxCell id="44" value="{productInfo}" style="shape=parallelogram;perimeter=parallelogramPerimeter;whiteSpace=wrap;html=1;fixedSize=1;fontSize=10;align=center;size=10;" parent="77" vertex="1">
                    <mxGeometry x="130.66666666666666" y="540.0888888888888" width="98.31111111111112" height="24.88888888888889" as="geometry"/>
                </mxCell>
                <mxCell id="46" value="" style="endArrow=none;dashed=1;html=1;dashPattern=1 3;strokeWidth=2;fontSize=9;entryX=0.5;entryY=0;entryDx=0;entryDy=0;exitX=0.817;exitY=0.1;exitDx=0;exitDy=0;exitPerimeter=0;" parent="77" source="8" target="34" edge="1">
                    <mxGeometry width="50" height="50" relative="1" as="geometry">
                        <mxPoint x="287.4666666666667" y="414.40000000000003" as="sourcePoint"/>
                        <mxPoint x="349.68888888888887" y="352.1777777777778" as="targetPoint"/>
                        <Array as="points">
                            <mxPoint x="388.26666666666665" y="414.40000000000003"/>
                        </Array>
                    </mxGeometry>
                </mxCell>
                <mxCell id="47" value="" style="endArrow=none;dashed=1;html=1;dashPattern=1 3;strokeWidth=2;fontSize=9;entryX=0.5;entryY=1;entryDx=0;entryDy=0;" parent="77" target="32" edge="1">
                    <mxGeometry width="50" height="50" relative="1" as="geometry">
                        <mxPoint x="279.68888888888887" y="492.8" as="sourcePoint"/>
                        <mxPoint x="335.6888888888886" y="492.8" as="targetPoint"/>
                        <Array as="points">
                            <mxPoint x="400.7111111111111" y="492.8"/>
                        </Array>
                    </mxGeometry>
                </mxCell>
                <mxCell id="48" value="" style="edgeStyle=none;html=1;fontSize=10;entryX=0.5;entryY=0;entryDx=0;entryDy=0;exitX=0.5;exitY=1;exitDx=0;exitDy=0;" parent="77" source="4" target="8" edge="1">
                    <mxGeometry relative="1" as="geometry">
                        <mxPoint x="353.4222222222222" y="348.44444444444446" as="sourcePoint"/>
                        <mxPoint x="352.8" y="398.22222222222223" as="targetPoint"/>
                    </mxGeometry>
                </mxCell>
                <mxCell id="58" value="outfitList[x]" style="shape=parallelogram;perimeter=parallelogramPerimeter;whiteSpace=wrap;html=1;fixedSize=1;fontSize=10;align=center;size=10;" parent="77" vertex="1">
                    <mxGeometry x="309.24444444444447" y="367.11111111111114" width="88.35555555555555" height="24.88888888888889" as="geometry"/>
                </mxCell>
                <mxCell id="72" value="OutfitList: [ids]" style="rounded=0;whiteSpace=wrap;html=1;fontSize=9;align=center;" parent="77" vertex="1">
                    <mxGeometry x="365.8666666666667" y="248.88888888888889" width="98.31111111111112" height="27.37777777777778" as="geometry"/>
                </mxCell>
                <mxCell id="75" value="" style="endArrow=open;dashed=1;html=1;dashPattern=1 3;strokeWidth=2;fontSize=6;exitX=0.644;exitY=-0.017;exitDx=0;exitDy=0;entryX=0;entryY=0.5;entryDx=0;entryDy=0;startArrow=open;startFill=0;endSize=2;startSize=3;endFill=0;exitPerimeter=0;" parent="77" source="22" target="4" edge="1">
                    <mxGeometry width="50" height="50" relative="1" as="geometry">
                        <mxPoint x="235.20000000000002" y="353.4222222222222" as="sourcePoint"/>
                        <mxPoint x="297.4222222222222" y="291.2" as="targetPoint"/>
                    </mxGeometry>
                </mxCell>
                <mxCell id="76" value="" style="endArrow=open;dashed=1;html=1;dashPattern=1 3;strokeWidth=2;fontSize=6;entryX=0.321;entryY=0.011;entryDx=0;entryDy=0;startArrow=open;startFill=0;endFill=0;endSize=3;startSize=3;entryPerimeter=0;" parent="77" target="22" edge="1">
                    <mxGeometry width="50" height="50" relative="1" as="geometry">
                        <mxPoint x="192.88888888888889" y="306.1333333333333" as="sourcePoint"/>
                        <mxPoint x="254.48888888888888" y="243.91111111111113" as="targetPoint"/>
                    </mxGeometry>
                </mxCell>
            </root>
        </mxGraphModel>
    </diagram>
</mxfile>